<?xml version="1.0" encoding="UTF-8" standalone="no"?><!DOCTYPE svg PUBLIC "-//W3C//DTD SVG 1.1//EN" "http://www.w3.org/Graphics/SVG/1.1/DTD/svg11.dtd"><svg width="100%" height="100%" viewBox="0 0 1654 1160" version="1.1" xmlns="http://www.w3.org/2000/svg" xmlns:xlink="http://www.w3.org/1999/xlink" xml:space="preserve" xmlns:serif="http://www.serif.com/" style="fill-rule:evenodd;clip-rule:evenodd;stroke-linejoin:round;stroke-miterlimit:2;"><rect id="Page-1" serif:id="Page 1" x="0" y="0" width="1653.112" height="1159.45" style="fill:none;"/><g id="Layer-1" serif:id="Layer 1"><path d="M661.815,827.737l0,-496.025l428.446,247.408l-428.446,248.617Zm955.854,-645.679c-19.312,-71.204 -73.621,-126.725 -146.033,-146.033c-127.933,-35 -645.683,-35 -645.683,-35c0,0 -516.542,0 -644.471,35c-71.208,19.308 -126.725,74.829 -147.242,146.033c-33.792,127.929 -33.792,397.062 -33.792,397.062c0,0 0,269.133 33.792,398.275c20.517,69.996 76.033,126.721 147.242,146.029c127.929,35 644.471,35 644.471,35c0,0 517.75,0 645.683,-35c72.412,-19.308 126.721,-76.033 146.033,-146.029c34.996,-129.142 34.996,-398.275 34.996,-398.275c0,0 0,-269.133 -34.996,-397.062" style="fill:#212121;fill-rule:nonzero;"/></g></svg>