<?xml version="1.0" encoding="UTF-8" standalone="no"?><!DOCTYPE svg PUBLIC "-//W3C//DTD SVG 1.1//EN" "http://www.w3.org/Graphics/SVG/1.1/DTD/svg11.dtd"><svg width="100%" height="100%" viewBox="0 0 2592 580" version="1.1" xmlns="http://www.w3.org/2000/svg" xmlns:xlink="http://www.w3.org/1999/xlink" xml:space="preserve" xmlns:serif="http://www.serif.com/" style="fill-rule:evenodd;clip-rule:evenodd;stroke-linejoin:round;stroke-miterlimit:2;"><g><path d="M328.825,414.754l213.021,-123.612l-213.021,-123.008l0,246.621Zm-238.817,147.012c-35.404,-9.604 -63.008,-37.804 -73.208,-72.608c-16.8,-64.204 -16.8,-198.017 -16.8,-198.017c0,0 0,-133.808 16.8,-197.412c10.2,-35.404 37.804,-63.008 73.208,-72.608c63.604,-17.404 320.425,-17.404 320.425,-17.404c0,0 257.425,0 321.029,17.404c36.004,9.6 63.004,37.204 72.608,72.608c17.4,63.604 17.4,197.412 17.4,197.412c0,0 0,133.812 -17.4,198.017c-9.604,34.804 -36.604,63.004 -72.608,72.608c-63.604,17.4 -321.029,17.4 -321.029,17.4c0,0 -256.821,0 -320.425,-17.4Z" style="fill:#ee1d3a;fill-rule:nonzero;"/><path d="M328.825,414.754l213.021,-123.612l-213.021,-123.008l0,246.621Z" style="fill:#fff;fill-rule:nonzero;"/><path d="M996.304,543.763l0,-157.508l-95.108,-346.533l82.504,0l34.204,153.612c7.8,35.404 15.904,86.108 19.504,104.412l0.6,0c3.6,-17.704 11.4,-68.408 19.5,-103.813l35.404,-154.212l82.508,-0l-96.308,346.533l0,157.508l-82.808,0Z" style="fill:#fff;fill-rule:nonzero;"/><path d="M1292.713,316.346c0,-70.804 -6.6,-91.208 -30,-91.208c-24,0 -31.204,20.404 -31.204,91.208l0,84.608c0,73.204 7.204,91.804 30.004,91.804c24.6,0 31.2,-18.6 31.2,-91.804l0,-84.608Zm84.012,28.204l0,29.4c0,130.808 -28.804,175.212 -114.612,175.212c-88.208,0 -114.608,-45.604 -114.608,-175.212l0,-29.4c0,-133.812 34.2,-176.417 116.408,-176.417c82.208,0 112.813,44.404 112.813,176.417Z" style="fill:#fff;fill-rule:nonzero;"/><path d="M1411.5,451.954l0,-276.621l82.808,0l0,267.921c0,32.404 7.2,46.804 24.3,46.804c12.904,0 25.5,-5.7 34.504,-29.7l0,-285.025l82.808,0l0,367.829l-70.208,0l-4.796,-49.504l-0.304,0c-10.2,35.104 -30.3,56.704 -72.004,56.704c-55.208,0 -77.108,-35.4 -77.108,-98.408Z" style="fill:#fff;fill-rule:nonzero;"/><path d="M1694.1,543.163l0,-432.633l-81.904,-0l0,-70.808l246.625,-0l0,70.808l-81.908,0l0,432.633l-82.812,0Z" style="fill:#fff;fill-rule:nonzero;"/><path d="M1836.004,451.954l0,-276.621l82.808,0l0,267.921c0,32.404 7.2,46.804 24.3,46.804c12.904,0 25.5,-5.7 34.5,-29.7l0,-285.025l82.808,0l0,367.829l-70.204,0l-4.796,-49.504l-0.304,0c-10.2,35.104 -30.3,56.704 -72.004,56.704c-55.208,0 -77.108,-35.4 -77.108,-98.408Z" style="fill:#fff;fill-rule:nonzero;"/><path d="M2251.508,330.746c0,-85.204 -7.196,-103.808 -30.3,-103.808c-15.604,0 -30.604,13.8 -36.604,40.204l0,203.117c7.2,14.1 19.8,20.1 33.004,20.1c24.9,0 33.9,-26.4 33.9,-106.204l0,-53.408Zm84.613,0l0,49.204c0,118.812 -25.204,168.613 -81.008,168.613c-33.904,0 -59.408,-15 -72.608,-40.2l-0.3,0l-5.404,34.8l-72.004,0l0,-522.042l79.808,0l0,105.608c0,27.604 0.6,55.204 -1.8,88.208l0.896,0c13.804,-27.604 37.508,-46.804 74.712,-46.804c53.404,0 77.708,34.8 77.708,162.613Z" style="fill:#fff;fill-rule:nonzero;"/><path d="M2450.4,311.546l0,27.904l54.6,0l0,-27.904c0,-67.808 -2.696,-87.008 -27.6,-87.008c-24.9,0 -27,19.8 -27,87.008Zm137.108,74.108l-137.108,0l0,20.1c0,64.804 1.496,87.004 28.2,87.004c26.4,0 32.404,-20.4 33,-62.404l72.908,3.3c5.4,80.108 -36,115.508 -106.208,115.508c-85.208,0 -110.408,-55.804 -110.408,-157.208l0,-64.208c0,-106.808 28.204,-159.012 112.808,-159.012c85.204,0 106.808,44.404 106.808,155.412l0,61.508Z" style="fill:#fff;fill-rule:nonzero;"/></g></svg>