<?xml version="1.0" encoding="UTF-8" standalone="no"?><!DOCTYPE svg PUBLIC "-//W3C//DTD SVG 1.1//EN" "http://www.w3.org/Graphics/SVG/1.1/DTD/svg11.dtd"><svg width="100%" height="100%" viewBox="0 0 622 139" version="1.1" xmlns="http://www.w3.org/2000/svg" xmlns:xlink="http://www.w3.org/1999/xlink" xml:space="preserve" xmlns:serif="http://www.serif.com/" style="fill-rule:evenodd;clip-rule:evenodd;stroke-linejoin:round;stroke-miterlimit:2;"><g><path d="M78.918,99.541l51.125,-29.667l-51.125,-29.522l0,59.189Zm-57.316,35.283c-8.497,-2.305 -15.122,-9.073 -17.57,-17.426c-4.032,-15.409 -4.032,-47.524 -4.032,-47.524c0,0 0,-32.114 4.032,-47.379c2.448,-8.497 9.073,-15.122 17.57,-17.426c15.265,-4.177 76.902,-4.177 76.902,-4.177c0,0 61.782,0 77.047,4.177c8.641,2.304 15.121,8.929 17.426,17.426c4.176,15.265 4.176,47.379 4.176,47.379c0,0 0,32.115 -4.176,47.524c-2.305,8.353 -8.785,15.121 -17.426,17.426c-15.265,4.176 -77.047,4.176 -77.047,4.176c0,0 -61.637,0 -76.902,-4.176Z" style="fill:#ee1d3a;fill-rule:nonzero;"/><path d="M78.918,99.541l51.125,-29.667l-51.125,-29.522l0,59.189Z" style="fill:#fff;fill-rule:nonzero;"/><path d="M239.113,130.503l0,-37.802l-22.826,-83.168l19.801,0l8.209,36.867c1.872,8.497 3.817,20.666 4.681,25.059l0.144,0c0.864,-4.249 2.736,-16.418 4.68,-24.915l8.497,-37.011l19.802,0l-23.114,83.168l0,37.802l-19.874,0Z" style="fill:#202020;fill-rule:nonzero;"/><path d="M310.251,75.923c0,-16.993 -1.584,-21.89 -7.2,-21.89c-5.76,0 -7.489,4.897 -7.489,21.89l0,20.306c0,17.569 1.729,22.033 7.201,22.033c5.904,0 7.488,-4.464 7.488,-22.033l0,-20.306Zm20.163,6.769l0,7.056c0,31.394 -6.913,42.051 -27.507,42.051c-21.17,0 -27.506,-10.945 -27.506,-42.051l0,-7.056c0,-32.115 8.208,-42.34 27.938,-42.34c19.73,0 27.075,10.657 27.075,42.34Z" style="fill:#202020;fill-rule:nonzero;"/><path d="M338.76,108.469l0,-66.389l19.874,0l0,64.301c0,7.777 1.728,11.233 5.832,11.233c3.097,0 6.12,-1.368 8.281,-7.128l0,-68.406l19.874,0l0,88.279l-16.85,0l-1.151,-11.881l-0.073,0c-2.448,8.425 -7.272,13.609 -17.281,13.609c-13.25,0 -18.506,-8.496 -18.506,-23.618Z" style="fill:#202020;fill-rule:nonzero;"/><path d="M406.584,130.359l0,-103.832l-19.657,0l0,-16.994l59.19,0l0,16.994l-19.658,0l0,103.832l-19.875,0Z" style="fill:#202020;fill-rule:nonzero;"/><path d="M440.641,108.469l0,-66.389l19.874,0l0,64.301c0,7.777 1.728,11.233 5.832,11.233c3.097,0 6.12,-1.368 8.28,-7.128l0,-68.406l19.874,0l0,88.279l-16.849,0l-1.151,-11.881l-0.073,0c-2.448,8.425 -7.272,13.609 -17.281,13.609c-13.25,0 -18.506,-8.496 -18.506,-23.618Z" style="fill:#202020;fill-rule:nonzero;"/><path d="M540.362,79.379c0,-20.449 -1.727,-24.914 -7.272,-24.914c-3.745,0 -7.345,3.312 -8.785,9.649l0,48.748c1.728,3.384 4.752,4.824 7.921,4.824c5.976,0 8.136,-6.336 8.136,-25.489l0,-12.818Zm20.307,0l0,11.809c0,28.515 -6.049,40.467 -19.442,40.467c-8.137,0 -14.258,-3.6 -17.426,-9.648l-0.072,0l-1.297,8.352l-17.281,0l0,-125.29l19.154,0l0,25.346c0,6.625 0.144,13.249 -0.432,21.17l0.215,0c3.313,-6.625 9.002,-11.233 17.931,-11.233c12.817,0 18.65,8.352 18.65,39.027Z" style="fill:#202020;fill-rule:nonzero;"/><path d="M588.096,74.771l0,6.697l13.104,0l0,-6.697c0,-16.274 -0.647,-20.882 -6.624,-20.882c-5.976,0 -6.48,4.752 -6.48,20.882Zm32.906,17.786l-32.906,0l0,4.824c0,15.553 0.359,20.881 6.768,20.881c6.336,0 7.777,-4.896 7.92,-14.977l17.498,0.792c1.296,19.226 -8.64,27.722 -25.49,27.722c-20.45,0 -26.498,-13.393 -26.498,-37.73l0,-15.41c0,-25.634 6.769,-38.163 27.074,-38.163c20.449,0 25.634,10.657 25.634,37.299l0,14.762Z" style="fill:#202020;fill-rule:nonzero;"/></g></svg>